# Blender v2.82 (sub 7) OBJ File: 'bouncingBall_v001.blend'
# www.blender.org
mtllib stairs_v001.mtl
o stairs_Cube_Cube.001
v -1.000000 4.795616 2.867377
v -1.000000 4.995615 2.867377
v -1.000000 4.995616 -3.132623
v -1.000000 4.795617 -3.132623
v 1.000000 4.995616 -3.132623
v 1.000000 4.795617 -3.132623
v 1.000000 4.995615 2.867377
v 1.000000 4.795616 2.867377
v 1.000000 3.795615 2.867377
v 1.000000 3.995615 2.867377
v 1.000000 3.995616 -3.132623
v 1.000000 3.795616 -3.132623
v 3.000000 3.995616 -3.132623
v 3.000000 3.795616 -3.132623
v 3.000000 3.995615 2.867377
v 3.000000 3.795615 2.867377
v 3.000000 2.795615 2.867377
v 3.000000 2.995615 2.867377
v 3.000000 2.995615 -3.132623
v 3.000000 2.795616 -3.132623
v 5.000000 2.995615 -3.132623
v 5.000000 2.795616 -3.132623
v 5.000000 2.995615 2.867377
v 5.000000 2.795615 2.867377
v 5.000000 1.795614 2.867376
v 5.000000 1.995615 2.867376
v 5.000000 1.995615 -3.132624
v 5.000000 1.795615 -3.132624
v 7.000000 1.995615 -3.132624
v 7.000000 1.795615 -3.132624
v 7.000000 1.995615 2.867376
v 7.000000 1.795614 2.867376
v 7.000000 0.795615 2.867376
v 7.000000 0.995615 2.867376
v 7.000000 0.995616 -3.132624
v 7.000000 0.795616 -3.132624
v 9.000000 0.995616 -3.132624
v 9.000000 0.795616 -3.132624
v 9.000000 0.995615 2.867376
v 9.000000 0.795615 2.867376
vt 0.375000 0.000000
vt 0.625000 0.000000
vt 0.625000 0.250000
vt 0.375000 0.250000
vt 0.625000 0.500000
vt 0.375000 0.500000
vt 0.625000 0.750000
vt 0.375000 0.750000
vt 0.625000 1.000000
vt 0.375000 1.000000
vt 0.125000 0.500000
vt 0.125000 0.750000
vt 0.875000 0.500000
vt 0.875000 0.750000
vt 0.375000 0.000000
vt 0.625000 0.000000
vt 0.625000 0.250000
vt 0.375000 0.250000
vt 0.625000 0.500000
vt 0.375000 0.500000
vt 0.625000 0.750000
vt 0.375000 0.750000
vt 0.625000 1.000000
vt 0.375000 1.000000
vt 0.125000 0.500000
vt 0.125000 0.750000
vt 0.875000 0.500000
vt 0.875000 0.750000
vt 0.375000 0.000000
vt 0.625000 0.000000
vt 0.625000 0.250000
vt 0.375000 0.250000
vt 0.625000 0.500000
vt 0.375000 0.500000
vt 0.625000 0.750000
vt 0.375000 0.750000
vt 0.625000 1.000000
vt 0.375000 1.000000
vt 0.125000 0.500000
vt 0.125000 0.750000
vt 0.875000 0.500000
vt 0.875000 0.750000
vt 0.375000 0.000000
vt 0.625000 0.000000
vt 0.625000 0.250000
vt 0.375000 0.250000
vt 0.625000 0.500000
vt 0.375000 0.500000
vt 0.625000 0.750000
vt 0.375000 0.750000
vt 0.625000 1.000000
vt 0.375000 1.000000
vt 0.125000 0.500000
vt 0.125000 0.750000
vt 0.875000 0.500000
vt 0.875000 0.750000
vt 0.375000 0.000000
vt 0.625000 0.000000
vt 0.625000 0.250000
vt 0.375000 0.250000
vt 0.625000 0.500000
vt 0.375000 0.500000
vt 0.625000 0.750000
vt 0.375000 0.750000
vt 0.625000 1.000000
vt 0.375000 1.000000
vt 0.125000 0.500000
vt 0.125000 0.750000
vt 0.875000 0.500000
vt 0.875000 0.750000
vn -1.0000 0.0000 0.0000
vn 0.0000 0.0000 -1.0000
vn 1.0000 0.0000 0.0000
vn 0.0000 0.0000 1.0000
vn 0.0000 -1.0000 -0.0000
vn 0.0000 1.0000 0.0000
usemtl None
s off
f 1/1/1 2/2/1 3/3/1 4/4/1
f 4/4/2 3/3/2 5/5/2 6/6/2
f 6/6/3 5/5/3 7/7/3 8/8/3
f 8/8/4 7/7/4 2/9/4 1/10/4
f 4/11/5 6/6/5 8/8/5 1/12/5
f 5/5/6 3/13/6 2/14/6 7/7/6
f 9/15/1 10/16/1 11/17/1 12/18/1
f 12/18/2 11/17/2 13/19/2 14/20/2
f 14/20/3 13/19/3 15/21/3 16/22/3
f 16/22/4 15/21/4 10/23/4 9/24/4
f 12/25/5 14/20/5 16/22/5 9/26/5
f 13/19/6 11/27/6 10/28/6 15/21/6
f 17/29/1 18/30/1 19/31/1 20/32/1
f 20/32/2 19/31/2 21/33/2 22/34/2
f 22/34/3 21/33/3 23/35/3 24/36/3
f 24/36/4 23/35/4 18/37/4 17/38/4
f 20/39/5 22/34/5 24/36/5 17/40/5
f 21/33/6 19/41/6 18/42/6 23/35/6
f 25/43/1 26/44/1 27/45/1 28/46/1
f 28/46/2 27/45/2 29/47/2 30/48/2
f 30/48/3 29/47/3 31/49/3 32/50/3
f 32/50/4 31/49/4 26/51/4 25/52/4
f 28/53/5 30/48/5 32/50/5 25/54/5
f 29/47/6 27/55/6 26/56/6 31/49/6
f 33/57/1 34/58/1 35/59/1 36/60/1
f 36/60/2 35/59/2 37/61/2 38/62/2
f 38/62/3 37/61/3 39/63/3 40/64/3
f 40/64/4 39/63/4 34/65/4 33/66/4
f 36/67/5 38/62/5 40/64/5 33/68/5
f 37/61/6 35/69/6 34/70/6 39/63/6
